<?xml version="1.0" encoding="utf-8"?>
<!-- Generator: Adobe Illustrator 18.1.1, SVG Export Plug-In . SVG Version: 6.00 Build 0)  -->
<!DOCTYPE svg PUBLIC "-//W3C//DTD SVG 1.1//EN" "http://www.w3.org/Graphics/SVG/1.1/DTD/svg11.dtd">
<svg version="1.1" id="Capa_1" xmlns="http://www.w3.org/2000/svg" xmlns:xlink="http://www.w3.org/1999/xlink" x="0px" y="0px"
	 viewBox="0 0 78.9 78.9" enable-background="new 0 0 78.9 78.9" xml:space="preserve">
<g id="Instagram_7_">
	<path id="Instagram_1_" d="M53.5,22.2H27.3c-2.3,0-4.1,1.8-4.1,4.1v26.2c0,2.3,1.8,4.1,4.1,4.1h26.2c2.3,0,4.1-1.8,4.1-4.1V26.2
		C57.5,24,55.7,22.2,53.5,22.2z M47.9,27.5c0-0.6,0.5-1.1,1.1-1.1h3.2c0.6,0,1.1,0.5,1.1,1.1v3.2c0,0.6-0.5,1.1-1.1,1.1H49
		c-0.6,0-1.1-0.5-1.1-1.1V27.5z M40.4,32.8c3.7,0,6.6,3,6.6,6.6c0,3.6-3,6.6-6.6,6.6c-3.6,0-6.6-3-6.6-6.6
		C33.8,35.7,36.8,32.8,40.4,32.8z M54.3,52.2c0,0.6-0.5,1.1-1.1,1.1H27.5c-0.6,0-1.1-0.5-1.1-1.1V36.1h4.3c-0.6,0.8-0.7,2.3-0.7,3.3
		c0,5.8,4.7,10.4,10.5,10.4c5.8,0,10.5-4.7,10.5-10.4c0-1-0.1-2.4-0.8-3.3h4.3V52.2z"/>
	<path d="M39.5,76c-20.4,0-37-16.6-37-37s16.6-37,37-37s37,16.6,37,37S59.9,76,39.5,76z M39.5,4.8C20.6,4.8,5.3,20.1,5.3,39
		s15.3,34.2,34.2,34.2S73.7,57.8,73.7,39S58.3,4.8,39.5,4.8z"/>
</g>
</svg>
