<?xml version="1.0" encoding="utf-8"?>
<!-- Generator: Adobe Illustrator 18.1.1, SVG Export Plug-In . SVG Version: 6.00 Build 0)  -->
<!DOCTYPE svg PUBLIC "-//W3C//DTD SVG 1.1//EN" "http://www.w3.org/Graphics/SVG/1.1/DTD/svg11.dtd">
<svg version="1.1" id="Capa_1" xmlns="http://www.w3.org/2000/svg" xmlns:xlink="http://www.w3.org/1999/xlink" x="0px" y="0px"
	 viewBox="0 0 78.9 78.9" enable-background="new 0 0 78.9 78.9" xml:space="preserve">
<g id="Behance_7_">
	<g id="Behance_1_">
		<path d="M36.9,38.5c0.7-0.4,1.3-0.8,1.6-1.2c0.7-0.8,1-1.8,1-3.1c0-1.2-0.3-2.3-1-3.2c-1.1-1.5-2.9-2.2-5.5-2.2H22.8v20.9h9.6
			c1.1,0,2.1-0.1,3-0.3c0.9-0.2,1.7-0.5,2.4-1.1c0.6-0.4,1.1-1,1.5-1.6c0.6-1,0.9-2.1,0.9-3.3c0-1.2-0.3-2.2-0.8-3.1
			C38.8,39.5,38,38.9,36.9,38.5z M27,32.4h4.6c1,0,1.9,0.1,2.5,0.3c0.8,0.3,1.1,1,1.1,1.9c0,0.9-0.3,1.5-0.9,1.8
			c-0.6,0.3-1.3,0.5-2.2,0.5H27V32.4z M34.3,45.7c-0.5,0.2-1.2,0.4-2.2,0.4H27v-5.6h5.2c0.9,0,1.6,0.1,2.1,0.4
			c0.9,0.4,1.4,1.2,1.4,2.2C35.7,44.4,35.3,45.3,34.3,45.7z"/>
		<rect x="44.8" y="29.8" width="9.1" height="2.6"/>
		<path d="M55.8,36.9c-0.7-1-1.6-1.8-2.7-2.3c-1.1-0.5-2.3-0.7-3.7-0.7c-2.3,0-4.2,0.7-5.6,2.1c-1.4,1.4-2.2,3.5-2.2,6.2
			c0,2.9,0.8,4.9,2.4,6.2c1.6,1.3,3.4,1.9,5.5,1.9c2.5,0,4.5-0.8,5.9-2.3c0.9-0.9,1.4-1.9,1.5-2.8h-4.2c-0.2,0.5-0.5,0.8-0.8,1.1
			c-0.6,0.5-1.3,0.7-2.3,0.7c-0.9,0-1.6-0.2-2.3-0.6c-1-0.6-1.6-1.7-1.6-3.3h11.4c0-1.3,0-2.4-0.1-3.1
			C56.8,38.9,56.4,37.8,55.8,36.9z M45.8,40.5c0.1-1,0.5-1.8,1.1-2.4c0.6-0.6,1.4-0.9,2.4-0.9c1,0,1.8,0.3,2.4,0.8
			c0.7,0.6,1,1.4,1.1,2.4H45.8z"/>
	</g>
	<path d="M39.5,76.5c-20.4,0-37-16.6-37-37s16.6-37,37-37s37,16.6,37,37S59.9,76.5,39.5,76.5z M39.5,5.3C20.6,5.3,5.3,20.6,5.3,39.5
		s15.3,34.2,34.2,34.2s34.2-15.3,34.2-34.2S58.3,5.3,39.5,5.3z"/>
</g>
</svg>
