<?xml version="1.0" encoding="utf-8"?>
<!-- Generator: Adobe Illustrator 18.1.1, SVG Export Plug-In . SVG Version: 6.00 Build 0)  -->
<!DOCTYPE svg PUBLIC "-//W3C//DTD SVG 1.1//EN" "http://www.w3.org/Graphics/SVG/1.1/DTD/svg11.dtd">
<svg version="1.1" id="Capa_1" xmlns="http://www.w3.org/2000/svg" xmlns:xlink="http://www.w3.org/1999/xlink" x="0px" y="0px"
	 viewBox="0 0 78.9 78.9" enable-background="new 0 0 78.9 78.9" xml:space="preserve">
<g id="Dribbble_7_">
	<g>
		<path id="Dribbble_1_" d="M55.3,32.7c-0.4-1-1-2-1.6-2.9c-0.6-0.9-1.3-1.8-2.1-2.5c-0.8-0.8-1.6-1.5-2.5-2.1
			c-0.9-0.6-1.9-1.2-2.9-1.6c-1-0.4-2.1-0.8-3.2-1c-1.1-0.2-2.3-0.4-3.5-0.4c-1.2,0-2.3,0.1-3.5,0.4c-1.1,0.2-2.2,0.6-3.2,1
			c-1,0.4-2,1-2.9,1.6c-0.9,0.6-1.8,1.3-2.5,2.1c-0.8,0.8-1.5,1.6-2.1,2.5c-0.6,0.9-1.2,1.9-1.6,2.9c-0.4,1-0.8,2.1-1,3.2
			c-0.2,1.1-0.3,2.3-0.3,3.5c0,1.2,0.1,2.3,0.3,3.5c0.2,1.1,0.6,2.2,1,3.2c0.4,1,1,2,1.6,2.9c0.6,0.9,1.3,1.8,2.1,2.5
			c0.8,0.8,1.6,1.5,2.5,2.1c0.9,0.6,1.9,1.2,2.9,1.6c1,0.4,2.1,0.8,3.2,1c1.1,0.2,2.3,0.4,3.5,0.4c1.2,0,2.3-0.1,3.5-0.4
			c1.1-0.2,2.2-0.6,3.2-1c1-0.4,2-1,2.9-1.6c0.9-0.6,1.8-1.3,2.5-2.1c0.8-0.8,1.5-1.6,2.1-2.5c0.6-0.9,1.2-1.9,1.6-2.9
			c0.4-1,0.8-2.1,1-3.2c0.2-1.1,0.3-2.3,0.3-3.5c0-1.2-0.1-2.3-0.3-3.5C56.1,34.8,55.7,33.7,55.3,32.7z M39.5,24.7
			c3.7,0,7.1,1.4,9.7,3.7c0,0.1-2.1,3.2-7.7,5.3c-2.5-4.6-5.3-8.3-5.5-8.6C37.1,24.8,38.3,24.7,39.5,24.7z M35.9,25.1
			C35.9,25.1,35.9,25.1,35.9,25.1C35.9,25.1,35.9,25.1,35.9,25.1C35.9,25.1,35.9,25.1,35.9,25.1z M33.2,26.1
			c0.2,0.3,2.9,3.9,5.5,8.5c-7,1.9-13.2,1.8-13.6,1.8C26.1,31.8,29.1,28,33.2,26.1z M28.5,49.2c-2.3-2.6-3.8-6-3.8-9.8
			c0-0.2,0-0.3,0-0.5c0.3,0,7.5,0.2,15.1-2.1c0.4,0.8,0.8,1.7,1.2,2.5c-0.2,0.1-0.4,0.1-0.6,0.2C32.6,42,28.5,49.2,28.5,49.2
			C28.5,49.2,28.5,49.2,28.5,49.2z M39.5,54.1c-3.5,0-6.7-1.2-9.2-3.2c-0.1,0-0.1-0.1-0.2-0.1c0.1,0.1,0.1,0.1,0.2,0.1
			c0.1,0.1,0.1,0.1,0.1,0.1s2.8-6.1,11.5-9.2c0,0,0.1,0,0.1,0c2.1,5.4,2.9,9.9,3.1,11.1C43.4,53.6,41.5,54.1,39.5,54.1z M47.7,51.5
			c-0.1-0.9-0.9-5.2-2.9-10.5c4.7-0.8,8.8,0.5,9.2,0.6C53.3,45.8,51,49.3,47.7,51.5z M43.9,38.7c-0.1-0.3-0.2-0.5-0.3-0.8
			c-0.3-0.7-0.6-1.4-1-2.1c5.8-2.4,8.2-5.8,8.2-5.8c2.1,2.5,3.3,5.7,3.3,9.2C53.9,39.2,49,38.1,43.9,38.7z"/>
	</g>
	<path d="M39.5,76.5c-20.4,0-37-16.6-37-37s16.6-37,37-37s37,16.6,37,37S59.9,76.5,39.5,76.5z M39.5,5.3C20.6,5.3,5.3,20.6,5.3,39.5
		s15.3,34.2,34.2,34.2s34.2-15.3,34.2-34.2S58.3,5.3,39.5,5.3z"/>
</g>
</svg>
